<?xml version="1.0" standalone="no"?>
<!DOCTYPE svg PUBLIC "-//W3C//DTD SVG 20010904//EN"
 "http://www.w3.org/TR/2001/REC-SVG-20010904/DTD/svg10.dtd">
<svg version="1.0" xmlns="http://www.w3.org/2000/svg"
 width="100.000000pt" height="100.000000pt" viewBox="0 0 500.000000 500.000000"
 preserveAspectRatio="xMidYMid meet">

<g transform="translate(0.000000,500.000000) scale(0.100000,-0.100000)"
fill="#000000" stroke="none">
<path d="M3382 3613 c3 -36 5 -38 41 -41 l37 -3 0 40 0 41 -41 0 -40 0 3 -37z"/>
<path d="M2020 3125 l0 -456 53 -23 c56 -25 212 -114 259 -147 96 -69 -75 106
-189 193 l-53 40 0 389 0 389 81 -30 c45 -16 106 -43 136 -60 74 -42 60 -24
-27 34 -65 44 -184 104 -237 120 l-23 7 0 -456z"/>
<path d="M2876 3545 c-87 -38 -164 -82 -215 -124 -29 -24 -20 -21 60 18 52 25
113 51 137 57 l42 11 0 -386 0 -386 -78 -62 c-42 -34 -111 -97 -152 -139 -73
-75 -73 -76 -25 -42 58 41 233 139 288 161 l37 16 0 455 c0 251 -3 456 -7 456
-5 0 -43 -16 -87 -35z"/>
<path d="M3490 3497 c0 -43 -5 -58 -23 -75 -20 -19 -35 -22 -110 -22 l-87 0 0
-105 0 -105 105 0 105 0 0 93 c0 114 9 127 88 127 l52 0 0 70 0 70 -65 0 -65
0 0 -53z"/>
<path d="M1880 2960 l0 -460 76 0 c86 0 245 -30 349 -65 89 -31 64 -9 -60 51
-86 42 -222 84 -272 84 l-23 0 0 425 0 425 -35 0 -35 0 0 -460z"/>
<path d="M3038 2998 l-3 -421 -81 -18 c-45 -10 -112 -30 -149 -44 -62 -25
-205 -102 -205 -110 0 -2 20 5 43 15 76 34 248 71 355 77 l102 6 0 458 0 459
-30 0 -30 0 -2 -422z"/>
<path d="M1663 3256 l-28 -24 -3 -406 -3 -405 30 -33 29 -33 329 -2 c364 -2
364 -2 153 54 -78 21 -126 26 -272 30 l-178 6 0 378 0 379 50 0 50 0 0 40 0
40 -64 0 c-54 0 -70 -4 -93 -24z"/>
<path d="M3270 2766 l0 -323 -177 -6 c-147 -4 -195 -9 -273 -30 -211 -56 -211
-56 152 -54 l328 2 27 28 28 27 3 340 3 340 -46 0 -45 0 0 -324z"/>
<path d="M2437 2284 c-4 -4 -7 -16 -7 -26 0 -16 -10 -18 -94 -18 -96 0 -126
-11 -126 -45 0 -7 7 -21 16 -29 13 -14 52 -16 267 -16 139 0 258 4 266 9 7 5
14 21 14 36 0 15 -7 31 -14 36 -8 5 -55 9 -106 9 -87 0 -92 1 -95 23 -3 19
-10 22 -58 25 -31 2 -59 0 -63 -4z"/>
<path d="M4161 1918 c-79 -204 -91 -242 -82 -251 6 -6 12 -9 14 -6 2 2 25 58
50 124 25 66 49 128 52 138 5 12 2 17 -9 17 -9 0 -20 -10 -25 -22z"/>
<path d="M980 1799 l0 -112 71 7 c93 8 111 18 107 59 -2 26 -9 33 -35 41 -39
11 -42 22 -8 30 20 5 25 13 25 36 0 38 -23 50 -99 50 l-61 0 0 -111z m120 50
c0 -15 -7 -19 -40 -19 -32 0 -40 4 -40 18 0 26 5 29 45 24 26 -3 35 -9 35 -23z
m15 -89 c0 -23 -4 -25 -47 -28 -48 -3 -48 -3 -48 28 0 31 0 31 48 28 43 -3 47
-5 47 -28z"/>
<path d="M1290 1895 c0 -9 9 -15 25 -15 24 0 25 -2 25 -75 0 -73 -1 -75 -25
-75 -18 0 -25 -5 -25 -20 0 -18 7 -20 75 -20 68 0 75 2 75 20 0 15 -7 20 -25
20 -24 0 -25 2 -25 75 0 73 1 75 25 75 16 0 25 6 25 15 0 12 -15 15 -75 15
-60 0 -75 -3 -75 -15z"/>
<path d="M1570 1799 l0 -112 71 7 c93 8 111 18 107 59 -2 26 -9 33 -35 41 -39
11 -42 22 -8 30 20 5 25 13 25 36 0 38 -23 50 -99 50 l-61 0 0 -111z m101 71
c12 0 19 -7 19 -20 0 -17 -7 -20 -40 -20 -32 0 -40 4 -40 18 0 24 10 34 28 27
7 -3 22 -5 33 -5z m34 -110 c0 -23 -4 -25 -47 -28 -48 -3 -48 -3 -48 28 0 31
0 31 48 28 43 -3 47 -5 47 -28z"/>
<path d="M1880 1816 c0 -52 3 -101 6 -110 5 -13 22 -16 80 -16 67 0 74 2 74
20 0 18 -7 20 -55 20 l-55 0 0 90 c0 89 0 90 -25 90 -25 0 -25 0 -25 -94z"/>
<path d="M2160 1896 c0 -8 10 -16 23 -18 20 -3 22 -9 25 -75 3 -72 3 -73 -23
-73 -18 0 -25 -5 -25 -20 0 -18 7 -20 70 -20 63 0 70 2 70 20 0 15 -7 20 -25
20 -26 0 -26 1 -23 73 3 66 5 72 26 75 12 2 22 10 22 18 0 11 -16 14 -70 14
-54 0 -70 -3 -70 -14z"/>
<path d="M2471 1884 c-57 -47 -47 -145 18 -178 38 -20 64 -20 106 -1 38 19 55
51 55 106 0 89 -108 133 -179 73z m119 -24 c43 -43 15 -130 -42 -130 -44 0
-68 25 -68 72 0 45 28 78 65 78 14 0 34 -9 45 -20z"/>
<path d="M2780 1896 c0 -9 12 -16 33 -18 l32 -3 3 -92 c2 -84 5 -93 22 -93 17
0 20 9 22 93 l3 92 38 3 c24 2 37 8 37 18 0 11 -19 14 -95 14 -76 0 -95 -3
-95 -14z"/>
<path d="M3090 1800 l0 -110 80 0 c73 0 80 2 80 20 0 18 -7 20 -55 20 -53 0
-55 1 -55 28 0 26 2 27 45 25 38 -1 45 2 45 18 0 16 -7 19 -45 19 -43 0 -45 1
-45 30 0 30 1 30 55 30 42 0 55 3 55 15 0 12 -16 15 -80 15 l-80 0 0 -110z"/>
<path d="M3408 1881 c-28 -25 -33 -36 -33 -73 0 -25 8 -55 17 -71 21 -30 84
-53 123 -43 28 7 75 48 75 66 0 18 -45 11 -58 -10 -16 -26 -73 -27 -95 -2 -20
22 -22 81 -4 105 6 9 26 20 44 23 26 5 36 2 56 -20 25 -26 57 -35 57 -15 0 6
-13 24 -29 40 -42 41 -107 41 -153 0z"/>
<path d="M3720 1800 l0 -110 25 0 c23 0 25 4 25 45 l0 45 60 0 60 0 0 -45 c0
-38 3 -45 20 -45 19 0 20 7 20 110 0 103 -1 110 -20 110 -17 0 -20 -7 -20 -45
l0 -45 -60 0 -60 0 0 45 c0 41 -2 45 -25 45 l-25 0 0 -110z"/>
<path d="M748 1813 c-92 -34 -91 -52 3 -87 80 -30 89 -31 89 -13 0 8 -26 22
-60 32 -33 10 -60 21 -60 24 0 3 26 15 57 27 31 11 58 25 61 32 5 17 -14 14
-90 -15z"/>
<path d="M4342 1828 c3 -7 30 -22 61 -33 31 -11 57 -22 57 -26 0 -3 -27 -14
-60 -24 -34 -10 -60 -24 -60 -32 0 -18 9 -17 89 13 51 19 71 31 71 44 0 13
-20 25 -71 44 -79 29 -92 31 -87 14z"/>
</g>
</svg>
